<svg xmlns="http://www.w3.org/2000/svg" version="1.0" width="512.000000pt" height="512.000000pt" viewBox="0 0 512.000000 512.000000" preserveAspectRatio="xMidYMid meet">
<g transform="translate(0.000000,512.000000) scale(0.100000,-0.100000)" fill="#ffffff" stroke="none">
<path d="M2385 4946 c-339 -53 -640 -263 -812 -565 -24 -42 -43 -86 -43 -99 0 -26 50 -82 74 -82 38 0 68 27 106 96 179 327 537 524 910 501 409 -26 762 -310 871 -702 10 -38 19 -73 19 -77 0 -4 -15 0 -34 8 -29 14 -37 15 -62 3 -38 -19 -58 -61 -46 -97 12 -38 196 -171 237 -172 21 0 55 18 115 60 135 96 155 130 107 186 -30 34 -76 36 -117 6 -16 -12 -31 -22 -33 -22 -3 0 -7 23 -11 50 -4 28 -20 91 -36 141 -172 525 -700 850 -1245 765z" fill="#ffffff"></path>
<path d="M2510 4552 c-148 -82 -549 -318 -567 -335 l-23 -20 0 -357 c0 -269 3 -360 13 -373 19 -26 598 -357 625 -357 29 0 34 3 347 183 143 82 268 158 278 169 15 18 17 52 17 377 l0 358 -22 21 c-34 31 -575 342 -606 348 -16 3 -41 -3 -62 -14z m239 -264 c97 -55 184 -107 194 -113 16 -11 -7 -27 -182 -128 l-200 -116 -201 116 c-134 77 -197 119 -188 124 220 130 376 218 387 219 7 0 93 -46 190 -102z m-461 -383 l191 -110 1 -233 0 -233 -57 32 c-32 18 -121 69 -198 114 l-140 80 -3 233 c-1 129 2 232 6 230 5 -1 95 -52 200 -113z m748 -341 c-3 -8 -254 -158 -388 -231 -5 -2 -8 101 -8 229 l1 233 197 112 197 113 3 -222 c1 -123 0 -228 -2 -234z" fill="#ffffff"></path>
<path d="M1423 3874 c-129 -88 -153 -111 -153 -150 0 -42 37 -84 73 -84 13 0 41 11 61 25 l36 24 6 -27 c40 -186 78 -285 153 -408 277 -448 820 -642 1326 -473 267 89 502 291 636 546 44 84 23 143 -51 143 -47 0 -59 -11 -104 -92 -123 -224 -356 -405 -606 -469 -126 -32 -307 -37 -432 -11 -335 70 -607 306 -721 627 -13 39 -27 87 -31 109 l-7 38 23 -16 c30 -22 60 -20 92 5 35 27 36 86 4 117 -50 46 -194 142 -215 142 -12 0 -52 -21 -90 -46z" fill="#ffffff"></path>
<path d="M1370 2908 c-38 -20 -93 -89 -427 -538 -212 -283 -391 -528 -400 -544 -20 -38 -20 -114 0 -152 20 -37 52 -67 157 -141 135 -96 149 -103 208 -103 59 0 83 9 124 48 15 14 29 24 31 21 2 -2 24 -38 50 -80 26 -42 78 -117 115 -166 90 -118 86 -109 65 -151 -23 -47 -23 -130 2 -202 37 -110 171 -210 281 -210 25 0 34 -4 34 -16 0 -36 66 -138 113 -175 46 -37 127 -69 172 -69 17 0 26 -11 39 -45 10 -24 37 -66 61 -92 100 -113 251 -135 380 -57 l58 34 122 -40 c372 -121 588 -82 680 121 l26 58 88 0 c108 0 185 26 246 82 51 47 97 143 103 217 4 49 6 52 33 52 44 0 131 21 171 41 84 42 146 135 169 252 10 48 9 64 -10 124 -12 41 -37 89 -62 122 -39 52 -41 56 -30 91 11 39 65 120 79 120 5 0 19 -12 33 -26 37 -39 73 -54 133 -54 50 0 62 5 143 60 132 90 201 146 219 182 25 48 21 119 -9 170 -15 24 -194 268 -399 543 -328 440 -379 503 -418 523 -87 44 -132 29 -309 -100 -129 -94 -151 -124 -151 -205 0 -46 -3 -53 -22 -58 -13 -3 -43 -10 -68 -16 -25 -6 -155 -14 -290 -19 -135 -4 -269 -13 -297 -20 -41 -9 -65 -9 -105 0 -29 7 -161 16 -293 20 -169 5 -261 12 -311 24 l-71 17 0 53 c0 79 -25 111 -163 210 -171 124 -214 138 -300 94z m200 -217 c58 -43 105 -81 105 -84 0 -16 -751 -1016 -764 -1016 -20 -1 -220 142 -221 158 0 19 749 1021 763 1020 7 0 59 -35 117 -78z m2484 -425 c207 -278 376 -511 376 -518 -1 -15 -201 -158 -221 -158 -13 1 -764 1001 -764 1017 0 9 208 162 222 162 6 1 180 -226 387 -503z m-2254 129 c98 -26 173 -37 299 -44 l123 -6 -103 -51 c-57 -28 -160 -73 -228 -99 -68 -27 -137 -60 -154 -74 -88 -74 -70 -209 43 -321 72 -73 127 -94 240 -94 87 0 104 4 201 41 141 54 235 74 349 75 203 0 339 -60 593 -261 308 -243 439 -310 611 -312 65 -1 66 -2 96 -42 47 -64 57 -107 36 -162 -39 -102 -98 -133 -234 -121 -113 9 -255 50 -494 142 -37 14 -52 16 -72 6 -57 -26 -70 -92 -26 -130 28 -23 193 -87 335 -128 65 -19 121 -37 124 -40 12 -12 1 -80 -21 -121 -33 -65 -71 -83 -178 -83 -107 0 -245 33 -425 100 -74 28 -145 50 -160 50 -33 0 -75 -41 -75 -73 0 -45 34 -72 147 -115 59 -23 140 -51 178 -62 39 -12 76 -23 83 -25 20 -7 -23 -82 -59 -100 -45 -24 -120 -29 -206 -15 -85 13 -243 56 -256 69 -5 5 -1 24 9 42 26 50 25 161 -2 220 -41 89 -127 152 -227 165 -42 6 -45 8 -51 43 -8 51 -57 124 -107 161 -49 35 -125 60 -184 60 -40 0 -42 2 -53 38 -54 181 -246 251 -431 159 -41 -20 -78 -37 -82 -37 -17 0 -197 257 -243 348 l-27 53 168 227 c285 384 398 532 403 532 3 0 30 -7 60 -15z m1862 -352 c151 -203 278 -374 282 -381 4 -7 -7 -29 -29 -55 -20 -23 -54 -78 -76 -123 l-39 -81 -59 8 c-126 18 -214 68 -461 261 -299 235 -467 308 -710 308 -128 0 -248 -24 -385 -75 -103 -39 -174 -52 -220 -41 -34 9 -100 69 -115 106 -7 17 -11 32 -9 34 2 1 60 24 129 51 69 26 204 87 300 135 270 136 367 160 640 160 164 0 305 15 405 44 28 8 55 15 62 15 6 1 135 -164 285 -366z m-1923 -887 c39 -21 61 -58 61 -103 -1 -35 -5 -41 -57 -73 -30 -19 -74 -56 -96 -82 -47 -56 -70 -60 -132 -23 -43 25 -70 66 -81 124 -6 27 -1 36 30 65 47 45 170 106 213 106 19 0 47 -7 62 -14z m342 -249 c46 -30 73 -87 64 -135 -8 -48 -105 -143 -170 -167 -79 -31 -156 -1 -195 75 -45 89 -17 137 123 210 89 46 129 50 178 17z m284 -251 c19 -8 44 -30 55 -48 39 -64 21 -120 -57 -185 -87 -73 -143 -89 -202 -58 -35 18 -81 71 -81 93 0 9 32 42 71 72 39 30 84 74 100 98 33 47 55 52 114 28z" fill="#ffffff"></path>
</g>
</svg> 