<svg xmlns="http://www.w3.org/2000/svg" version="1.0" width="512.000000pt" height="512.000000pt" viewBox="0 0 512.000000 512.000000" preserveAspectRatio="xMidYMid meet">
<g transform="translate(0.000000,512.000000) scale(0.100000,-0.100000)" fill="#655246" stroke="none">
<path d="M2291 4789 c-247 -26 -554 -120 -771 -237 -112 -60 -256 -155 -355 -235 l-80 -65 -3 57 c-2 40 -9 62 -24 78 -27 29 -77 30 -109 4 -23 -18 -24 -25 -27 -171 -4 -168 -1 -191 28 -220 18 -18 34 -20 204 -20 165 0 186 2 207 19 31 25 32 83 2 113 -16 16 -39 23 -89 27 l-67 6 79 61 c338 261 698 402 1110 434 575 46 1197 -189 1626 -613 335 -332 541 -739 604 -1192 12 -92 15 -165 11 -315 -6 -241 -24 -343 -110 -642 -9 -30 -8 -41 7 -62 27 -42 60 -53 101 -33 30 15 37 25 64 109 73 231 101 409 101 653 0 293 -46 536 -150 803 -112 288 -275 543 -490 766 -203 210 -392 349 -645 472 -233 113 -453 176 -707 203 -113 13 -396 12 -517 0z" fill="#655246"></path><path d="M1695 3665 c-600 -208 -734 -258 -752 -280 l-23 -26 0 -735 c0 -636 2 -739 15 -764 13 -25 29 -34 98 -54 552 -167 1379 -407 1403 -408 52 0 1466 421 1492 445 l22 20 0 753 c0 701 -1 753 -17 773 -13 16 -220 92 -752 276 -403 140 -739 255 -745 255 -6 -1 -339 -115 -741 -255z m1333 -116 c320 -111 580 -204 577 -207 -8 -8 -1148 -372 -1165 -372 -13 0 -1170 366 -1176 373 -3 3 1157 406 1171 407 6 0 272 -90 593 -201z m-1308 -522 l635 -203 3 -623 c2 -522 0 -622 -11 -618 -8 3 -223 67 -478 142 -255 75 -536 158 -624 185 l-160 48 -3 636 c-1 350 -1 636 0 636 2 0 289 -92 638 -203z m2070 -434 l0 -638 -593 -174 c-325 -96 -611 -181 -634 -187 l-43 -13 0 622 0 622 633 202 c347 111 633 202 635 202 1 1 2 -286 2 -636z" fill="#655246"></path><path d="M1392 2997 c-21 -22 -22 -32 -22 -203 0 -174 1 -181 23 -201 24 -23 559 -193 606 -193 16 0 37 10 49 23 22 23 22 30 20 207 -3 182 -3 183 -28 201 -29 22 -561 189 -600 189 -15 0 -36 -10 -48 -23z m340 -228 l178 -54 0 -64 c0 -55 -2 -63 -17 -59 -10 3 -96 29 -190 59 l-173 53 0 64 c0 47 3 63 13 60 6 -2 92 -29 189 -59z" fill="#655246"></path><path d="M3437 2341 c-93 -32 -173 -64 -178 -72 -31 -48 -16 -106 34 -123 21 -8 57 0 184 39 191 60 217 75 221 132 3 34 -1 44 -24 62 -15 11 -36 21 -48 20 -11 0 -97 -26 -189 -58z" fill="#655246"></path><path d="M3401 2090 c-112 -38 -212 -77 -222 -86 -12 -11 -19 -31 -19 -55 0 -48 39 -84 84 -75 78 16 414 131 434 149 27 25 29 76 5 106 -33 39 -66 34 -282 -39z" fill="#655246"></path><path d="M616 3667 c-14 -19 -48 -81 -75 -138 -98 -209 -153 -385 -193 -619 -30 -169 -32 -528 -5 -695 45 -276 123 -506 248 -730 332 -597 928 -1009 1644 -1136 152 -27 456 -37 606 -20 517 60 992 294 1321 651 l75 81 12 -40 c6 -23 20 -45 31 -51 31 -16 78 -12 100 10 22 22 26 81 21 275 -4 138 1 135 -232 135 l-188 0 -20 -26 c-27 -35 -26 -67 3 -101 22 -25 31 -28 112 -33 l88 -5 -60 -70 c-321 -371 -756 -604 -1244 -664 -120 -15 -407 -13 -525 4 -555 79 -1050 348 -1391 756 -390 467 -544 1091 -423 1717 29 152 100 357 174 511 36 73 65 141 65 151 0 9 -9 29 -21 44 -16 20 -29 26 -59 26 -32 0 -43 -6 -64 -33z" fill="#655246"></path>
</g>
</svg> 