<svg xmlns="http://www.w3.org/2000/svg" width="512" height="512" viewBox="0 0 512 512" version="1.1">
<path d="" stroke="none" fill="#655246" fill-rule="evenodd"></path>
<path d="M 63 1.307 C 58.092 2.854, 49.721 11.522, 48.216 16.616 C 47.281 19.783, 47 63.332, 47 205.398 C 47 368.942, 47.175 390.483, 48.531 393.728 C 50.981 399.593, 54.377 403.339, 60.130 406.526 L 65.500 409.500 142.797 409.780 L 220.095 410.059 223.047 407.107 C 227.348 402.806, 226.516 396.467, 221.343 394.110 C 219.627 393.329, 197.039 393, 145.018 393 C 98.495 393, 70.162 392.632, 68.517 392.006 C 62.656 389.778, 62.955 400.489, 63.239 203.029 L 63.500 22.045 66.273 19.273 L 69.045 16.500 217.500 16.500 L 365.954 16.500 368.727 19.273 L 371.500 22.045 371.741 157.273 C 371.918 257.015, 372.284 293.078, 373.134 294.702 C 375.521 299.263, 383.335 299.557, 386.637 295.211 C 388.363 292.939, 388.622 22.782, 386.905 16.595 C 385.451 11.359, 376.641 2.549, 371.405 1.095 C 365.857 -0.445, 67.910 -0.240, 63 1.307 M 119.357 79.082 C 112.336 81.782, 106.021 87.622, 101.948 95.179 C 98.800 101.019, 98.539 102.184, 98.520 110.500 C 98.496 121.274, 100.434 126.343, 107.445 133.838 C 120.776 148.090, 143.224 148.090, 156.555 133.838 C 162.160 127.846, 165.046 121.589, 165.741 113.920 C 166.240 108.417, 166.101 107.948, 163.094 104.940 C 160.428 102.274, 159.417 101.867, 156.776 102.395 C 152.447 103.261, 150.144 105.621, 149.462 109.887 C 148.307 117.118, 147.889 118.117, 144.409 121.969 C 137.840 129.241, 128.150 129.840, 121.039 123.416 C 116.123 118.975, 114.627 115.237, 115.234 108.914 C 116.026 100.672, 122.052 94.687, 130.823 93.431 C 136.955 92.553, 140 89.756, 140 85 C 140 77.228, 130.935 74.629, 119.357 79.082 M 186.455 87.455 C 182.740 91.169, 182.806 96.327, 186.611 99.750 L 189.112 102 243.133 102 L 297.154 102 300.077 99.077 C 301.839 97.315, 303 95.100, 303 93.500 C 303 91.900, 301.839 89.685, 300.077 87.923 L 297.154 85 243.031 85 L 188.909 85 186.455 87.455 M 187.763 120.554 C 183.007 123.154, 182.412 129.972, 186.611 133.750 L 189.112 136 260.601 136 L 332.091 136 334.545 133.545 C 337.724 130.367, 337.740 125.972, 334.587 122.306 L 332.174 119.500 261.337 119.279 C 200.052 119.088, 190.131 119.260, 187.763 120.554 M 120.264 172.804 C 105.889 178.558, 97.043 192.494, 98.247 207.489 C 98.884 215.424, 101.737 221.735, 107.445 227.838 C 120.776 242.090, 143.224 242.090, 156.555 227.838 C 162.131 221.877, 165.045 215.593, 165.728 208.060 C 166.182 203.056, 165.951 202.054, 163.751 199.497 C 161.848 197.285, 160.396 196.600, 157.607 196.600 C 152.734 196.600, 150.139 199.361, 149.153 205.593 C 147.531 215.855, 141.444 221.500, 132 221.500 C 121.531 221.500, 114.359 213.749, 115.220 203.366 C 115.938 194.708, 121.657 188.866, 130.723 187.532 C 136.931 186.619, 140 183.796, 140 179 C 140 173.502, 136.813 170.986, 129.936 171.054 C 126.946 171.084, 122.594 171.872, 120.264 172.804 M 188.209 180.046 C 185.473 181.144, 183.126 186.207, 183.776 189.607 C 184.032 190.948, 185.373 192.935, 186.756 194.023 C 189.141 195.899, 190.905 196, 221.185 196 C 258.855 196, 260.070 195.723, 259.968 187.168 C 259.932 184.090, 258.423 181.818, 255.316 180.163 C 252.643 178.740, 191.729 178.634, 188.209 180.046 M 299.324 180.380 C 290.306 183.329, 284.544 188.529, 280.355 197.500 L 278.020 202.500 278.010 256.891 L 278 311.282 263.084 326.544 C 250.475 339.447, 247.626 342.942, 244.661 349.153 C 240.359 358.166, 238.530 367.097, 239.308 375.300 C 239.631 378.710, 244.410 400.625, 249.927 424 C 262.063 475.413, 263.298 478.526, 276.900 492.049 C 286.748 501.839, 295.402 506.906, 307.609 510.028 C 314.735 511.850, 318.780 511.999, 360.910 511.985 C 412.334 511.969, 413.590 511.833, 428 504.760 C 440.001 498.869, 451.869 487.001, 457.760 475 C 464.934 460.386, 464.969 460.030, 464.985 401.428 C 465.002 342.367, 465.162 343.733, 457.178 334.853 C 450.911 327.883, 444.599 325.020, 435.500 325.020 C 430.212 325.020, 427.241 325.606, 423.353 327.416 L 418.206 329.813 412.844 324.619 C 403.644 315.708, 391.306 313.625, 380.220 319.111 L 375.245 321.573 372.081 317.804 C 364.270 308.501, 350.374 305.046, 338.783 309.525 C 337.175 310.147, 337.048 306.703, 336.783 255.344 C 336.501 200.600, 336.496 200.492, 334.244 196.278 C 330.776 189.788, 326.370 185.328, 320.682 182.548 C 314.276 179.418, 305.110 178.487, 299.324 180.380 M 302.500 196.954 C 299.427 198.225, 296.057 202.314, 294.976 206.083 C 294.379 208.167, 294 239.856, 294 287.789 L 294 366.091 291.545 368.545 C 288.298 371.793, 283.153 371.857, 280.174 368.686 C 278.146 366.526, 278 365.387, 278 351.686 C 278 343.608, 277.607 337, 277.127 337 C 275.057 337, 261.613 352.603, 259.266 357.729 C 254.404 368.351, 254.660 370.702, 265.826 418 C 271.344 441.375, 276.613 462.300, 277.535 464.500 C 280.596 471.802, 287.814 480.769, 294.279 485.301 C 308.785 495.469, 314.726 496.325, 366.856 495.756 C 409.196 495.294, 410.141 495.176, 422.199 488.792 C 429.083 485.148, 438.806 475.289, 442.283 468.428 C 448.499 456.162, 448.500 456.151, 448.500 402 C 448.500 362.124, 448.231 351.863, 447.118 349.224 C 443.109 339.722, 429.139 339.029, 424.449 348.099 C 423.534 349.867, 423 353.881, 423 358.982 C 423 368.972, 421.373 373.326, 417.079 374.822 C 413.509 376.067, 411.464 375.570, 408.250 372.677 C 406.138 370.776, 406 369.861, 406 357.794 C 406 343.344, 405.082 339.929, 400.059 335.703 C 394.459 330.991, 386.671 332.397, 382.280 338.912 C 380.307 341.840, 380 343.566, 380 351.725 C 380 360.813, 379.894 361.259, 377.077 364.077 C 375.469 365.685, 373.240 367, 372.124 367 C 369.230 367, 365.241 365.007, 364.349 363.115 C 363.930 362.227, 363.342 355.119, 363.044 347.320 C 362.430 331.325, 361.557 329.082, 354.588 325.621 C 349.829 323.257, 344.847 324.463, 340.463 329.039 C 337.647 331.978, 337.484 332.632, 337.004 342.960 C 336.426 355.382, 335.107 358, 329.427 358 C 324.789 358, 323.130 357.151, 321.463 353.928 C 320.218 351.522, 319.999 340.231, 319.996 278.300 C 319.993 207.860, 319.929 205.396, 318.040 202.299 C 314.802 196.987, 308.042 194.662, 302.500 196.954 M 188.285 214.455 C 183.027 216.776, 182.150 223.737, 186.611 227.750 C 189.097 229.987, 189.297 230, 222.101 230 L 255.091 230 257.545 227.545 C 260.724 224.367, 260.740 219.973, 257.588 216.306 L 255.175 213.500 223.338 213.268 C 197.638 213.081, 190.880 213.310, 188.285 214.455 M 121 266.571 C 102.382 272.493, 92.718 295.640, 101.430 313.445 C 104.911 320.562, 113.353 328.276, 120.238 330.633 C 126.996 332.945, 137.004 332.945, 143.762 330.633 C 154.917 326.814, 164.621 314.267, 165.711 302.253 C 166.184 297.034, 165.970 296.076, 163.751 293.497 C 161.848 291.285, 160.396 290.600, 157.607 290.600 C 152.715 290.600, 150.139 293.358, 149.143 299.660 C 148.053 306.555, 144.808 311.430, 139.647 313.929 C 131.233 318.002, 122.008 315.283, 117.366 307.361 C 115.176 303.624, 114.832 302.036, 115.215 297.415 C 115.939 288.692, 121.623 282.872, 130.626 281.638 C 136.828 280.788, 140 277.865, 140 273 C 140 265.566, 132.324 262.968, 121 266.571 M 188.209 274.046 C 185.473 275.144, 183.126 280.207, 183.776 283.607 C 184.032 284.948, 185.373 286.935, 186.756 288.023 C 189.145 289.902, 190.909 290, 222.180 290 L 255.091 290 257.545 287.545 C 261.159 283.931, 260.899 278.935, 256.923 275.589 L 253.847 273 222.173 273.063 C 204.753 273.098, 189.469 273.541, 188.209 274.046 M 188.285 308.441 C 183.232 310.693, 182.216 317.382, 186.264 321.750 C 188.318 323.967, 188.712 324, 213.220 324 L 238.091 324 240.545 321.545 C 243.724 318.367, 243.740 313.973, 240.588 310.306 L 238.176 307.500 214.838 307.254 C 196.331 307.060, 190.834 307.305, 188.285 308.441" stroke="none" fill="#655246" fill-rule="evenodd"></path>
</svg> 