<svg xmlns="http://www.w3.org/2000/svg" version="1.0" width="512.000000pt" height="512.000000pt" viewBox="0 0 512.000000 512.000000" preserveAspectRatio="xMidYMid meet">
<g transform="translate(0.000000,512.000000) scale(0.100000,-0.100000)" fill="#ffffff" stroke="none">
<path d="M535 5103 c-141 -30 -294 -123 -381 -230 -60 -76 -120 -200 -139 -288 -22 -105 -22 -3945 0 -4050 43 -203 186 -380 380 -471 145 -67 65 -64 1715 -64 l1491 0 24 25 c14 13 25 36 25 50 0 14 -11 37 -25 50 l-24 25 -1488 0 c-1594 0 -1540 -1 -1655 49 -150 67 -267 218 -299 385 -12 65 -12 3887 0 3952 32 167 149 318 299 385 117 52 22 49 2129 47 l1958 -3 65 -23 c159 -57 279 -177 332 -332 l23 -65 0 -1985 0 -1985 -23 -65 c-53 -155 -174 -275 -332 -332 -61 -21 -82 -23 -355 -26 -279 -3 -291 -4 -312 -24 -33 -30 -31 -80 3 -107 25 -20 39 -21 291 -21 305 0 373 10 498 70 149 72 249 173 322 326 67 140 64 20 61 2204 -3 1896 -4 1977 -22 2030 -66 196 -188 338 -361 420 -156 75 -10 70 -2182 69 -1690 -1 -1957 -3 -2018 -16z" fill="#ffffff"></path><path d="M1365 3983 c-91 -104 -101 -123 -80 -162 31 -61 84 -57 146 11 l49 53 24 -25 c13 -14 97 -108 187 -210 l162 -185 -186 -3 c-103 -1 -271 -1 -373 0 l-187 3 27 31 c33 40 33 78 1 109 -51 52 -74 38 -215 -126 -52 -60 -61 -76 -56 -99 4 -24 1535 -2186 1633 -2307 28 -35 41 -43 67 -43 18 0 39 6 48 12 19 15 1635 2282 1650 2315 6 12 8 32 5 46 -6 20 -417 497 -540 625 l-41 42 -1122 0 -1122 0 -77 -87z m1025 -61 c0 -6 -306 -359 -359 -415 -6 -6 -350 370 -375 411 -6 9 70 12 363 12 204 0 371 -4 371 -8z m1088 -1 c-4 -12 -362 -420 -368 -420 -6 0 -364 408 -368 420 -2 5 151 9 368 9 219 0 370 -4 368 -9z m-719 -251 l181 -205 -191 -3 c-105 -1 -273 -1 -373 0 l-183 3 185 208 c101 114 188 207 192 205 4 -2 89 -95 189 -208z m1086 -1 l182 -204 -183 -3 c-100 -1 -268 -1 -373 0 l-191 3 183 207 c100 114 186 206 191 205 6 -2 92 -95 191 -208z m-1663 -1276 c120 -504 217 -918 215 -919 -3 -3 -1299 1812 -1305 1827 -2 5 194 9 435 9 l438 0 217 -917z m828 907 c0 -12 -439 -1863 -443 -1866 -1 -1 -100 411 -221 917 -120 506 -220 928 -223 939 -5 20 0 20 441 20 295 0 446 -3 446 -10z m1018 -22 c-14 -18 -305 -427 -648 -908 -342 -481 -629 -881 -636 -889 -11 -12 -10 -3 1 45 70 298 408 1718 416 1747 l10 37 441 0 440 0 -24 -32z" fill="#ffffff"></path>
<path d="M4045 2325 c-18 -17 -25 -35 -25 -62 0 -52 -39 -131 -83 -170 -36 -32 -118 -63 -164 -63 -27 0 -73 -41 -73 -64 0 -52 35 -79 119 -90 54 -8 89 -26 130 -68 42 -42 59 -75 67 -129 9 -68 23 -96 55 -110 23 -9 36 -9 55 -1 28 13 37 33 54 115 7 36 24 74 43 100 39 51 124 97 179 97 75 0 116 81 66 127 -13 11 -44 23 -71 27 -123 15 -208 100 -223 223 -12 87 -76 122 -129 68z m94 -327 l42 -41 -41 -42 -42 -43 -42 42 -43 41 41 43 c22 23 41 42 42 42 1 0 20 -19 43 -42z" fill="#ffffff"></path>
<path d="M1103 2248 c-25 -12 -38 -47 -47 -123 -9 -70 -48 -145 -105 -198 -65 -61 -114 -84 -212 -101 -89 -15 -109 -29 -109 -77 0 -48 28 -69 102 -79 180 -22 305 -145 328 -322 10 -81 30 -108 81 -108 44 0 66 30 74 97 23 183 147 310 327 333 56 7 77 14 90 30 23 29 23 61 -2 92 -16 21 -32 27 -84 32 -122 14 -238 92 -292 197 -13 26 -29 80 -35 121 -16 101 -54 136 -116 106z m66 -373 c24 -35 67 -77 110 -107 22 -15 21 -16 -64 -101 -47 -47 -85 -82 -85 -78 0 14 -83 103 -122 131 l-38 28 49 37 c27 21 64 58 82 81 18 24 35 44 38 44 3 0 17 -16 30 -35z" fill="#ffffff"></path>
<path d="M3405 1470 c-10 -11 -22 -46 -26 -76 -16 -115 -95 -194 -217 -215 -94 -17 -127 -69 -79 -124 16 -19 35 -27 75 -32 115 -13 205 -102 221 -217 9 -68 32 -96 78 -96 46 0 69 27 76 88 15 128 96 205 240 227 48 8 77 36 77 75 0 39 -29 67 -77 75 -78 12 -115 27 -154 62 -50 46 -78 99 -86 165 -4 30 -14 59 -25 70 -25 25 -80 24 -103 -2z m93 -412 l-41 -43 -42 43 -43 42 42 43 41 42 42 -42 42 -43 -41 -42z" fill="#ffffff"></path>
</g>
</svg> 