<svg xmlns="http://www.w3.org/2000/svg" version="1.0" width="512.000000pt" height="512.000000pt" viewBox="0 0 512.000000 512.000000" preserveAspectRatio="xMidYMid meet">
<g transform="translate(0.000000,512.000000) scale(0.100000,-0.100000)" fill="#ffffff" stroke="none">
<path d="M2457 5092 c-9 -10 -17 -31 -17 -46 0 -21 175 -420 232 -528 8 -17 -4 -18 -197 -18 l-205 0 -57 79 c-32 44 -68 85 -81 90 -13 6 -60 11 -106 11 -69 0 -88 -4 -110 -21 -15 -11 -26 -31 -26 -44 0 -12 18 -90 39 -172 l39 -149 -39 -149 c-21 -83 -39 -160 -39 -172 0 -12 12 -31 26 -42 22 -18 41 -21 115 -21 48 0 94 3 103 6 8 3 42 44 76 90 l61 84 205 0 c192 0 204 -1 195 -17 -55 -105 -231 -510 -231 -532 0 -53 28 -66 159 -69 64 -2 128 1 142 6 18 7 96 106 245 311 l218 301 241 0 c238 0 242 0 292 25 32 16 61 41 79 67 25 36 29 50 29 113 0 80 -21 123 -80 164 -54 36 -91 41 -331 41 l-230 0 -220 303 -220 302 -145 3 c-131 2 -147 1 -162 -16z m435 -402 c114 -157 216 -295 227 -307 19 -23 22 -23 285 -23 253 0 267 -1 286 -20 11 -11 20 -31 20 -45 0 -14 -9 -34 -20 -45 -19 -19 -33 -20 -283 -20 l-263 0 -26 -27 c-14 -16 -110 -145 -213 -288 -104 -143 -197 -270 -208 -282 -20 -22 -77 -33 -77 -15 0 5 54 126 120 270 66 144 120 268 120 277 0 9 -11 27 -25 40 l-24 25 -295 0 c-162 0 -301 -3 -310 -6 -8 -3 -42 -44 -76 -90 -58 -79 -88 -106 -76 -66 3 9 17 65 31 123 l27 106 -31 118 c-36 135 -34 125 -22 125 5 0 37 -38 70 -84 33 -46 68 -87 77 -90 8 -3 150 -6 314 -6 l299 0 20 26 c12 15 21 33 21 40 0 8 -54 132 -120 275 -66 144 -120 266 -120 271 0 5 15 8 32 6 31 -3 49 -24 240 -288z" fill="#ffffff"></path><path d="M1607 4150 c-312 -173 -559 -400 -750 -690 -176 -267 -291 -576 -333 -893 -20 -154 -15 -487 10 -622 41 -226 100 -403 196 -595 309 -616 895 -1042 1576 -1145 147 -22 373 -30 403 -13 37 20 48 64 24 97 -18 23 -27 26 -89 28 -348 12 -619 75 -891 208 -591 289 -992 841 -1087 1496 -21 140 -21 409 0 548 93 632 479 1180 1039 1475 38 20 77 44 87 53 41 37 7 113 -50 113 -15 0 -76 -27 -135 -60z" fill="#ffffff"></path>
<path d="M3207 3902 c-22 -24 -22 -75 1 -94 9 -8 60 -35 112 -60 109 -53 223 -125 320 -204 l67 -54 -57 -113 c-87 -174 -115 -319 -90 -467 10 -61 32 -112 124 -295 136 -266 158 -328 164 -455 4 -86 1 -103 -23 -170 -16 -41 -28 -93 -29 -115 -1 -32 3 -42 26 -54 61 -35 109 18 149 164 18 66 21 99 17 185 -7 141 -41 241 -169 488 -135 262 -150 327 -109 487 21 81 74 208 95 225 25 20 194 -220 271 -386 57 -120 96 -240 126 -374 19 -91 22 -134 22 -320 0 -186 -3 -229 -22 -319 -23 -103 -23 -105 -4 -130 22 -30 68 -39 95 -19 38 28 77 265 77 466 0 209 -26 370 -90 564 -150 451 -469 813 -903 1024 -98 48 -144 55 -170 26z" fill="#ffffff"></path>
<path d="M1645 3753 c-590 -394 -885 -1110 -745 -1806 46 -226 156 -480 287 -667 86 -121 290 -325 413 -412 113 -80 289 -173 420 -221 232 -86 641 -138 698 -89 32 26 37 63 12 95 -21 26 -25 27 -113 27 -155 1 -410 43 -509 84 l-30 13 68 38 c88 49 202 162 237 235 46 96 60 172 54 295 -10 214 -61 382 -207 685 -115 238 -131 289 -106 342 20 41 70 78 142 104 68 24 224 22 393 -5 211 -33 299 -27 362 26 46 39 69 96 69 174 0 121 -42 221 -138 322 -215 225 -614 296 -989 176 -181 -58 -307 -72 -425 -48 -64 13 -187 70 -212 98 -18 20 -17 21 32 83 78 98 238 247 343 321 95 66 109 81 109 116 0 27 -38 61 -68 61 -16 0 -57 -20 -97 -47z m-371 -669 c188 -128 425 -146 710 -55 264 85 502 77 712 -24 156 -75 241 -181 252 -311 9 -113 -26 -124 -281 -83 -169 27 -340 29 -422 5 -150 -44 -256 -144 -271 -259 -10 -70 19 -158 125 -377 157 -324 195 -454 196 -660 0 -122 -1 -127 -33 -192 -56 -114 -193 -218 -340 -258 -42 -11 -45 -10 -124 36 -163 96 -367 278 -476 426 -314 426 -402 995 -230 1487 32 93 125 291 136 291 4 0 25 -12 46 -26z" fill="#ffffff"></path>
<path d="M2965 1675 c-29 -14 -60 -40 -75 -62 l-25 -37 0 -727 0 -727 31 -39 c16 -21 48 -47 70 -58 38 -19 59 -20 754 -20 393 0 732 4 753 8 45 10 105 60 123 104 11 26 14 168 14 741 l0 708 -29 45 c-56 89 -6 84 -836 87 l-730 2 -50 -25z m377 -504 c3 -376 4 -391 24 -417 11 -15 33 -37 48 -48 26 -20 43 -21 308 -24 265 -3 282 -2 322 18 27 13 50 34 64 59 22 38 22 47 22 420 l0 381 151 0 c84 0 159 -5 170 -10 18 -10 19 -29 19 -695 l0 -684 -22 -15 c-20 -14 -104 -16 -713 -16 -609 0 -693 2 -713 16 l-22 15 0 684 c0 641 1 685 18 694 9 6 85 11 169 11 l152 0 3 -389z m648 19 l0 -370 -255 0 -255 0 0 370 0 370 255 0 255 0 0 -370z" fill="#ffffff"></path>
</g>
</svg> 